<?xml version="1.0" encoding="UTF-8" standalone="no"?>
<!DOCTYPE svg PUBLIC "-//W3C//DTD SVG 1.1//EN"
 "http://www.w3.org/Graphics/SVG/1.1/DTD/svg11.dtd">
<!-- Generated by graphviz version 2.26.3 (20100126.1600)
 -->
<!-- Title: G Pages: 1 -->
<svg width="394pt" height="1434pt"
 viewBox="0.00 0.00 394.00 1434.00" xmlns="http://www.w3.org/2000/svg" xmlns:xlink="http://www.w3.org/1999/xlink">
<g id="graph1" class="graph" transform="scale(1 1) rotate(0) translate(4 1430)">
<title>G</title>
<polygon fill="white" stroke="white" points="-4,5 -4,-1430 391,-1430 391,5 -4,5"/>
<g id="graph2" class="cluster"><title>cluster_Global</title>
<polyline fill="none" stroke="gray" points="20,-8 366,-8 "/>
<path fill="none" stroke="gray" d="M366,-8C372,-8 378,-14 378,-20"/>
<polyline fill="none" stroke="gray" points="378,-20 378,-1406 "/>
<path fill="none" stroke="gray" d="M378,-1406C378,-1412 372,-1418 366,-1418"/>
<polyline fill="none" stroke="gray" points="366,-1418 20,-1418 "/>
<path fill="none" stroke="gray" d="M20,-1418C14,-1418 8,-1412 8,-1406"/>
<polyline fill="none" stroke="gray" points="8,-1406 8,-20 "/>
<path fill="none" stroke="gray" d="M8,-20C8,-14 14,-8 20,-8"/>
<text text-anchor="middle" x="193" y="-1404.1" font-family="Times Roman,serif" font-size="11.00" fill="gray">Global</text>
</g>
<g id="graph3" class="cluster"><title>cluster_\Redundancy</title>
<polyline fill="none" stroke="gray" points="28,-60 358,-60 "/>
<path fill="none" stroke="gray" d="M358,-60C364,-60 370,-66 370,-72"/>
<polyline fill="none" stroke="gray" points="370,-72 370,-1376 "/>
<path fill="none" stroke="gray" d="M370,-1376C370,-1382 364,-1388 358,-1388"/>
<polyline fill="none" stroke="gray" points="358,-1388 28,-1388 "/>
<path fill="none" stroke="gray" d="M28,-1388C22,-1388 16,-1382 16,-1376"/>
<polyline fill="none" stroke="gray" points="16,-1376 16,-72 "/>
<path fill="none" stroke="gray" d="M16,-72C16,-66 22,-60 28,-60"/>
<text text-anchor="middle" x="193" y="-1374.1" font-family="Times Roman,serif" font-size="11.00" fill="gray">Redundancy</text>
</g>
<g id="graph4" class="cluster"><title>cluster_\Redundancy\Kernel</title>
<polyline fill="none" stroke="gray" points="226,-798 344,-798 "/>
<path fill="none" stroke="gray" d="M344,-798C350,-798 356,-804 356,-810"/>
<polyline fill="none" stroke="gray" points="356,-810 356,-1346 "/>
<path fill="none" stroke="gray" d="M356,-1346C356,-1352 350,-1358 344,-1358"/>
<polyline fill="none" stroke="gray" points="344,-1358 226,-1358 "/>
<path fill="none" stroke="gray" d="M226,-1358C220,-1358 214,-1352 214,-1346"/>
<polyline fill="none" stroke="gray" points="214,-1346 214,-810 "/>
<path fill="none" stroke="gray" d="M214,-810C214,-804 220,-798 226,-798"/>
<text text-anchor="middle" x="285" y="-1344.1" font-family="Times Roman,serif" font-size="11.00" fill="gray">Kernel</text>
</g>
<g id="graph5" class="cluster"><title>cluster_\Redundancy\Classes</title>
<polyline fill="none" stroke="gray" points="36,-68 350,-68 "/>
<path fill="none" stroke="gray" d="M350,-68C356,-68 362,-74 362,-80"/>
<polyline fill="none" stroke="gray" points="362,-80 362,-778 "/>
<path fill="none" stroke="gray" d="M362,-778C362,-784 356,-790 350,-790"/>
<polyline fill="none" stroke="gray" points="350,-790 36,-790 "/>
<path fill="none" stroke="gray" d="M36,-790C30,-790 24,-784 24,-778"/>
<polyline fill="none" stroke="gray" points="24,-778 24,-80 "/>
<path fill="none" stroke="gray" d="M24,-80C24,-74 30,-68 36,-68"/>
<text text-anchor="middle" x="193" y="-776.1" font-family="Times Roman,serif" font-size="11.00" fill="gray">Classes</text>
</g>
<!-- \\Redundancy\\Kernel\\Kernel -->
<g id="node4" class="node"><title>\\Redundancy\\Kernel\\Kernel</title>
<polygon fill="none" stroke="black" points="313,-1328 257,-1328 257,-1292 313,-1292 313,-1328"/>
<text text-anchor="middle" x="285" y="-1306.6" font-family="Courier,monospace" font-size="11.00">Kernel</text>
</g>
<!-- \\Redundancy\\Kernel\\DBLayer -->
<g id="node5" class="node"><title>\\Redundancy\\Kernel\\DBLayer</title>
<polygon fill="none" stroke="black" points="317,-1274 253,-1274 253,-1238 317,-1238 317,-1274"/>
<text text-anchor="middle" x="285" y="-1252.6" font-family="Courier,monospace" font-size="11.00">DBLayer</text>
</g>
<!-- \\Redundancy\\Kernel\\UpdateKernel -->
<g id="node6" class="node"><title>\\Redundancy\\Kernel\\UpdateKernel</title>
<polygon fill="none" stroke="black" points="334,-1220 236,-1220 236,-1184 334,-1184 334,-1220"/>
<text text-anchor="middle" x="285" y="-1198.6" font-family="Courier,monospace" font-size="11.00">UpdateKernel</text>
</g>
<!-- \\Redundancy\\Kernel\\FileSystemKernel -->
<g id="node7" class="node"><title>\\Redundancy\\Kernel\\FileSystemKernel</title>
<polygon fill="none" stroke="black" points="347,-1166 223,-1166 223,-1130 347,-1130 347,-1166"/>
<text text-anchor="middle" x="285" y="-1144.6" font-family="Courier,monospace" font-size="11.00">FileSystemKernel</text>
</g>
<!-- \\Redundancy\\Kernel\\BackupKernel -->
<g id="node8" class="node"><title>\\Redundancy\\Kernel\\BackupKernel</title>
<polygon fill="none" stroke="black" points="334,-1112 236,-1112 236,-1076 334,-1076 334,-1112"/>
<text text-anchor="middle" x="285" y="-1090.6" font-family="Courier,monospace" font-size="11.00">BackupKernel</text>
</g>
<!-- \\Redundancy\\Kernel\\SharingKernel -->
<g id="node9" class="node"><title>\\Redundancy\\Kernel\\SharingKernel</title>
<polygon fill="none" stroke="black" points="337,-1058 233,-1058 233,-1022 337,-1022 337,-1058"/>
<text text-anchor="middle" x="285" y="-1036.6" font-family="Courier,monospace" font-size="11.00">SharingKernel</text>
</g>
<!-- \\Redundancy\\Kernel\\Installer -->
<g id="node10" class="node"><title>\\Redundancy\\Kernel\\Installer</title>
<polygon fill="none" stroke="black" points="323,-1004 247,-1004 247,-968 323,-968 323,-1004"/>
<text text-anchor="middle" x="285" y="-982.6" font-family="Courier,monospace" font-size="11.00">Installer</text>
</g>
<!-- \\Redundancy\\Kernel\\SystemKernel -->
<g id="node11" class="node"><title>\\Redundancy\\Kernel\\SystemKernel</title>
<polygon fill="none" stroke="black" points="334,-950 236,-950 236,-914 334,-914 334,-950"/>
<text text-anchor="middle" x="285" y="-928.6" font-family="Courier,monospace" font-size="11.00">SystemKernel</text>
</g>
<!-- \\Redundancy\\Kernel\\InterfaceKernel -->
<g id="node12" class="node"><title>\\Redundancy\\Kernel\\InterfaceKernel</title>
<polygon fill="none" stroke="black" points="344,-896 226,-896 226,-860 344,-860 344,-896"/>
<text text-anchor="middle" x="285" y="-874.6" font-family="Courier,monospace" font-size="11.00">InterfaceKernel</text>
</g>
<!-- \\Redundancy\\Kernel\\UserKernel -->
<g id="node13" class="node"><title>\\Redundancy\\Kernel\\UserKernel</title>
<polygon fill="none" stroke="black" points="327,-842 243,-842 243,-806 327,-806 327,-842"/>
<text text-anchor="middle" x="285" y="-820.6" font-family="Courier,monospace" font-size="11.00">UserKernel</text>
</g>
<!-- \\Redundancy\\Classes\\Errors -->
<g id="node15" class="node"><title>\\Redundancy\\Classes\\Errors</title>
<polygon fill="none" stroke="black" points="327,-760 243,-760 243,-724 327,-724 327,-760"/>
<text text-anchor="start" x="251" y="-747.433" font-family="Courier,monospace" font-size="11.00">«abstract»</text>
<text text-anchor="start" x="264.5" y="-734.233" font-family="Courier,monospace" font-size="11.00">Errors</text>
</g>
<!-- \\Redundancy\\Classes\\PermissionSet -->
<g id="node16" class="node"><title>\\Redundancy\\Classes\\PermissionSet</title>
<polygon fill="none" stroke="black" points="337,-706 233,-706 233,-670 337,-670 337,-706"/>
<text text-anchor="start" x="251" y="-693.433" font-family="Courier,monospace" font-size="11.00">«abstract»</text>
<text text-anchor="start" x="241" y="-680.233" font-family="Courier,monospace" font-size="11.00">PermissionSet</text>
</g>
<!-- \\Redundancy\\Classes\\SystemDirectories -->
<g id="node17" class="node"><title>\\Redundancy\\Classes\\SystemDirectories</title>
<polygon fill="none" stroke="black" points="351,-652 219,-652 219,-616 351,-616 351,-652"/>
<text text-anchor="start" x="251" y="-639.433" font-family="Courier,monospace" font-size="11.00">«abstract»</text>
<text text-anchor="start" x="227.5" y="-626.233" font-family="Courier,monospace" font-size="11.00">SystemDirectories</text>
</g>
<!-- \\Redundancy\\Classes\\SystemConstants -->
<g id="node18" class="node"><title>\\Redundancy\\Classes\\SystemConstants</title>
<polygon fill="none" stroke="black" points="344,-598 226,-598 226,-562 344,-562 344,-598"/>
<text text-anchor="start" x="251" y="-585.433" font-family="Courier,monospace" font-size="11.00">«abstract»</text>
<text text-anchor="start" x="234" y="-572.233" font-family="Courier,monospace" font-size="11.00">SystemConstants</text>
</g>
<!-- \\Redundancy\\Classes\\ShareMode -->
<g id="node19" class="node"><title>\\Redundancy\\Classes\\ShareMode</title>
<polygon fill="none" stroke="black" points="327,-544 243,-544 243,-508 327,-508 327,-544"/>
<text text-anchor="start" x="251" y="-531.433" font-family="Courier,monospace" font-size="11.00">«abstract»</text>
<text text-anchor="start" x="254.5" y="-518.233" font-family="Courier,monospace" font-size="11.00">ShareMode</text>
</g>
<!-- \\Redundancy\\Classes\\ShareDirection -->
<g id="node20" class="node"><title>\\Redundancy\\Classes\\ShareDirection</title>
<polygon fill="none" stroke="black" points="341,-490 229,-490 229,-454 341,-454 341,-490"/>
<text text-anchor="start" x="251" y="-477.433" font-family="Courier,monospace" font-size="11.00">«abstract»</text>
<text text-anchor="start" x="237.5" y="-464.233" font-family="Courier,monospace" font-size="11.00">ShareDirection</text>
</g>
<!-- \\Redundancy\\Classes\\Folder -->
<g id="node21" class="node"><title>\\Redundancy\\Classes\\Folder</title>
<polygon fill="none" stroke="black" points="313,-436 257,-436 257,-400 313,-400 313,-436"/>
<text text-anchor="middle" x="285" y="-414.6" font-family="Courier,monospace" font-size="11.00">Folder</text>
</g>
<!-- \\Redundancy\\Classes\\FileSystemItem -->
<g id="node26" class="node"><title>\\Redundancy\\Classes\\FileSystemItem</title>
<polygon fill="none" stroke="black" points="143,-355 33,-355 33,-319 143,-319 143,-355"/>
<text text-anchor="middle" x="88" y="-333.6" font-family="Courier,monospace" font-size="11.00">FileSystemItem</text>
</g>
<!-- \\Redundancy\\Classes\\Folder&#45;&gt;\\Redundancy\\Classes\\FileSystemItem -->
<g id="edge6" class="edge"><title>\\Redundancy\\Classes\\Folder&#45;&gt;\\Redundancy\\Classes\\FileSystemItem</title>
<path fill="none" stroke="black" d="M256.221,-407.366C243.269,-402.5 227.816,-396.585 214,-391 188.886,-380.848 161.197,-369.049 138.187,-359.075"/>
<polygon fill="none" stroke="black" points="139.528,-355.841 128.962,-355.065 136.737,-362.261 139.528,-355.841"/>
</g>
<!-- \\Redundancy\\Classes\\FileSystemAnalysis -->
<g id="node22" class="node"><title>\\Redundancy\\Classes\\FileSystemAnalysis</title>
<polygon fill="none" stroke="black" points="354,-382 216,-382 216,-346 354,-346 354,-382"/>
<text text-anchor="middle" x="285" y="-360.6" font-family="Courier,monospace" font-size="11.00">FileSystemAnalysis</text>
</g>
<!-- \\Redundancy\\Classes\\Role -->
<g id="node23" class="node"><title>\\Redundancy\\Classes\\Role</title>
<polygon fill="none" stroke="black" points="312,-328 258,-328 258,-292 312,-292 312,-328"/>
<text text-anchor="middle" x="285" y="-306.6" font-family="Courier,monospace" font-size="11.00">Role</text>
</g>
<!-- \\Redundancy\\Classes\\File -->
<g id="node24" class="node"><title>\\Redundancy\\Classes\\File</title>
<polygon fill="none" stroke="black" points="312,-274 258,-274 258,-238 312,-238 312,-274"/>
<text text-anchor="middle" x="285" y="-252.6" font-family="Courier,monospace" font-size="11.00">File</text>
</g>
<!-- \\Redundancy\\Classes\\File&#45;&gt;\\Redundancy\\Classes\\FileSystemItem -->
<g id="edge8" class="edge"><title>\\Redundancy\\Classes\\File&#45;&gt;\\Redundancy\\Classes\\FileSystemItem</title>
<path fill="none" stroke="black" d="M257.925,-265.995C244.639,-270.976 228.427,-277.168 214,-283 188.886,-293.152 161.197,-304.951 138.187,-314.925"/>
<polygon fill="none" stroke="black" points="136.737,-311.739 128.962,-318.935 139.528,-318.159 136.737,-311.739"/>
</g>
<!-- \\Redundancy\\Classes\\Share -->
<g id="node25" class="node"><title>\\Redundancy\\Classes\\Share</title>
<polygon fill="none" stroke="black" points="312,-220 258,-220 258,-184 312,-184 312,-220"/>
<text text-anchor="middle" x="285" y="-198.6" font-family="Courier,monospace" font-size="11.00">Share</text>
</g>
<!-- \\Redundancy\\Classes\\User -->
<g id="node27" class="node"><title>\\Redundancy\\Classes\\User</title>
<polygon fill="none" stroke="black" points="312,-166 258,-166 258,-130 312,-130 312,-166"/>
<text text-anchor="middle" x="285" y="-144.6" font-family="Courier,monospace" font-size="11.00">User</text>
</g>
<!-- \\Redundancy\\Classes\\Setting -->
<g id="node28" class="node"><title>\\Redundancy\\Classes\\Setting</title>
<polygon fill="none" stroke="black" points="317,-112 253,-112 253,-76 317,-76 317,-112"/>
<text text-anchor="middle" x="285" y="-90.6" font-family="Courier,monospace" font-size="11.00">Setting</text>
</g>
<!-- \\README -->
<g id="node29" class="node"><title>\\README</title>
<polygon fill="none" stroke="black" points="313,-52 257,-52 257,-16 313,-16 313,-52"/>
<text text-anchor="middle" x="285" y="-30.6" font-family="Courier,monospace" font-size="11.00">README</text>
</g>
</g>
</svg>
